<?xml version="1.0" standalone="no"?>
<!DOCTYPE svg PUBLIC "-//W3C//DTD SVG 20010904//EN"
 "http://www.w3.org/TR/2001/REC-SVG-20010904/DTD/svg10.dtd">
<svg version="1.0" xmlns="http://www.w3.org/2000/svg"
 width="1080.000000pt" height="1080.000000pt" viewBox="0 0 1080.000000 1080.000000"
 preserveAspectRatio="xMidYMid meet">

<g transform="translate(0.000000,1080.000000) scale(0.100000,-0.100000)"
fill="#000000" stroke="none">
<path d="M3814 9386 c-12 -8 -29 -37 -39 -63 -10 -26 -21 -52 -25 -58 -4 -5
-10 -23 -14 -39 -4 -15 -15 -47 -25 -70 -11 -22 -38 -90 -60 -151 -23 -60 -46
-119 -51 -130 -6 -11 -23 -56 -39 -100 -16 -44 -44 -116 -61 -160 -36 -92 -69
-178 -110 -285 -16 -41 -42 -109 -58 -150 -17 -41 -57 -145 -90 -230 -108
-279 -152 -394 -167 -430 -8 -19 -30 -78 -50 -130 -34 -87 -66 -169 -130 -335
-31 -80 -110 -282 -190 -490 -36 -93 -77 -197 -89 -230 -13 -33 -40 -100 -59
-150 -19 -49 -51 -130 -70 -180 -19 -49 -47 -121 -62 -160 -27 -71 -55 -143
-105 -270 -42 -105 -76 -196 -90 -235 -7 -19 -19 -49 -26 -67 -18 -40 -18 -47
4 -66 17 -15 59 -17 405 -17 l387 0 14 23 c15 23 54 128 86 232 10 33 37 110
60 170 22 61 61 171 86 245 25 74 50 144 55 155 5 11 21 54 35 95 14 41 34
100 44 130 10 30 37 107 60 170 22 63 51 147 64 185 13 39 52 149 86 245 34
96 71 202 82 235 11 33 24 69 29 80 5 11 34 94 64 185 51 152 75 203 91 188 3
-4 23 -55 44 -115 66 -190 210 -595 246 -693 19 -52 42 -117 50 -145 8 -27 19
-59 24 -70 11 -22 96 -260 141 -395 16 -47 33 -94 38 -105 5 -11 18 -47 29
-80 11 -33 37 -105 57 -160 20 -55 47 -131 60 -170 13 -38 38 -108 55 -155 17
-47 40 -112 51 -145 11 -33 27 -70 35 -82 l14 -23 388 0 c408 0 412 0 412 45
0 16 -68 202 -109 300 -5 11 -16 36 -24 55 -8 19 -18 46 -22 60 -4 14 -13 39
-20 55 -24 53 -64 157 -116 295 -28 74 -57 149 -64 165 -12 27 -43 107 -110
280 -13 33 -53 134 -88 225 -67 173 -151 389 -194 500 -14 36 -41 106 -60 155
-34 87 -63 163 -136 350 -20 50 -56 144 -82 210 -25 66 -61 158 -79 205 -31
78 -87 223 -172 440 -18 47 -57 148 -87 225 -262 677 -248 644 -287 645 -9 0
-25 -7 -36 -14z"/>
<path d="M5348 7539 c-34 -19 -32 -25 118 -414 64 -167 150 -388 176 -455 16
-41 40 -104 52 -140 13 -36 49 -130 80 -210 66 -167 73 -185 162 -415 76 -199
83 -217 169 -437 36 -92 65 -170 65 -174 0 -3 7 -20 15 -37 8 -18 23 -57 34
-87 18 -51 54 -146 119 -310 14 -36 35 -92 46 -125 12 -33 25 -65 28 -71 6 -9
33 -79 94 -244 13 -36 28 -74 33 -85 5 -11 25 -63 45 -115 33 -88 136 -355
190 -495 44 -111 74 -189 108 -279 35 -94 55 -114 103 -102 14 4 29 14 32 24
3 9 34 89 68 177 64 164 140 362 202 520 19 50 41 106 48 125 76 193 130 334
147 380 11 30 28 73 38 95 9 22 21 51 25 65 4 14 17 50 30 80 12 30 34 84 48
120 14 36 57 147 96 247 39 100 71 185 71 189 0 3 6 20 14 37 24 56 156 396
156 404 1 4 9 26 20 48 11 22 19 43 20 48 0 4 30 83 66 175 37 92 70 178 74
192 5 14 22 59 38 100 72 182 112 286 112 293 0 4 -180 7 -400 7 l-400 0 -11
-27 c-7 -16 -15 -37 -20 -48 -5 -11 -20 -51 -33 -90 -13 -38 -37 -108 -54
-155 -17 -47 -53 -148 -80 -225 -81 -226 -122 -339 -132 -360 -5 -11 -16 -42
-24 -70 -8 -27 -34 -99 -56 -160 -23 -60 -51 -137 -62 -170 -11 -33 -27 -73
-35 -89 l-16 -30 -19 39 c-11 21 -44 106 -73 189 -112 319 -156 442 -165 461
-5 11 -18 47 -29 80 -11 33 -35 103 -54 155 -19 52 -62 174 -97 270 -34 96
-72 204 -85 240 -58 158 -87 239 -105 290 -10 30 -37 107 -60 170 -23 63 -62
174 -87 245 -25 72 -54 138 -65 148 -19 16 -52 17 -392 17 -233 0 -377 -4
-388 -11z"/>
<path d="M6767 7273 c-4 -3 -7 -105 -7 -225 l0 -218 118 0 c93 0 126 4 158 19
70 32 114 109 114 201 0 105 -56 189 -144 215 -50 15 -227 21 -239 8z m248
-103 c13 -14 30 -46 37 -72 15 -60 -1 -133 -37 -165 -25 -22 -92 -38 -136 -31
-24 3 -24 3 -27 152 l-3 148 71 -4 c58 -3 74 -8 95 -28z"/>
<path d="M7247 7274 c-4 -4 -7 -106 -7 -226 l0 -218 45 0 45 0 -2 223 -3 222
-35 3 c-20 2 -39 0 -43 -4z"/>
<path d="M7548 7266 c-75 -33 -118 -111 -118 -213 0 -89 17 -140 62 -185 56
-56 156 -64 206 -18 27 25 32 25 32 0 0 -17 7 -20 45 -20 l46 0 -3 123 -3 122
-92 3 c-84 3 -92 1 -98 -18 -3 -11 -3 -29 0 -40 5 -16 15 -20 56 -20 47 0 49
-1 49 -28 0 -33 -22 -57 -68 -73 -26 -9 -38 -8 -69 8 -48 23 -73 71 -73 141 0
69 21 117 62 142 51 31 93 25 145 -22 22 -20 22 -20 52 2 17 12 31 25 31 29 0
10 -51 56 -77 70 -28 14 -150 13 -185 -3z"/>
<path d="M7927 7274 c-4 -4 -7 -106 -7 -226 l0 -218 45 0 45 0 -2 223 -3 222
-35 3 c-20 2 -39 0 -43 -4z"/>
<path d="M8084 7266 c-3 -8 -4 -25 -2 -38 3 -20 10 -24 63 -28 l60 -5 3 -182
2 -183 45 0 45 0 0 185 0 185 60 0 c55 0 60 2 66 25 13 53 8 55 -171 55 -134
0 -167 -3 -171 -14z"/>
<path d="M8614 7273 c-6 -5 -13 -17 -16 -28 -4 -11 -36 -105 -72 -210 -36
-104 -66 -193 -66 -197 0 -5 19 -8 43 -8 42 0 43 1 60 50 l18 50 83 0 c91 0
89 2 111 -77 5 -20 13 -23 54 -23 l49 0 -40 113 c-22 61 -56 162 -76 222 l-38
110 -49 3 c-28 1 -55 -1 -61 -5z m106 -260 c0 -18 -99 -18 -106 0 -6 17 33
139 48 148 8 5 19 -16 35 -64 12 -40 23 -78 23 -84z"/>
<path d="M8947 7274 c-4 -4 -7 -106 -7 -226 l0 -218 146 0 145 0 -3 33 -3 32
-95 5 -95 5 -5 185 -5 185 -35 3 c-20 2 -39 0 -43 -4z"/>
<path d="M4830 4640 c-50 -12 -100 -70 -100 -115 0 -72 50 -122 140 -139 62
-12 90 -28 96 -52 19 -76 -74 -97 -162 -38 l-38 26 -23 -26 c-29 -34 -20 -53
37 -84 60 -32 173 -31 221 1 18 12 39 34 46 47 19 37 16 98 -7 135 -22 35 -44
47 -134 70 -69 17 -86 29 -86 61 0 45 78 59 146 27 36 -17 36 -17 55 6 11 13
18 29 16 35 -12 37 -136 64 -207 46z"/>
<path d="M2693 4628 c-5 -7 -17 -35 -25 -63 -9 -27 -39 -115 -67 -195 -28 -80
-51 -153 -51 -163 0 -15 7 -18 42 -15 39 3 42 5 56 48 8 25 20 48 26 52 17 11
135 9 157 -2 10 -6 19 -18 19 -26 0 -8 7 -28 15 -44 13 -26 21 -30 56 -30 38
0 41 2 36 23 -6 28 -101 304 -129 375 l-20 52 -53 0 c-30 0 -57 -5 -62 -12z
m92 -169 c13 -40 21 -77 19 -81 -3 -4 -27 -8 -55 -8 -57 0 -59 4 -29 93 21 63
30 81 36 74 3 -2 15 -37 29 -78z"/>
<path d="M3030 4416 l0 -226 104 0 c120 0 175 15 223 62 42 41 56 85 55 176 0
63 -5 81 -29 120 -44 71 -84 86 -230 90 l-123 4 0 -226z m246 126 c61 -45 66
-188 10 -241 -24 -22 -124 -45 -151 -34 -20 7 -22 288 -2 297 22 10 120 -6
143 -22z"/>
<path d="M3475 4618 c3 -13 36 -113 73 -223 l68 -200 54 0 55 0 69 200 c91
266 88 245 34 245 -41 0 -45 -2 -55 -32 -6 -18 -28 -88 -49 -156 -27 -83 -43
-121 -52 -120 -8 2 -35 67 -63 156 l-50 152 -45 0 c-41 0 -44 -2 -39 -22z"/>
<path d="M3942 4418 l3 -223 150 0 150 0 0 30 0 30 -94 3 c-52 1 -101 8 -108
14 -9 7 -13 28 -11 62 l3 51 88 3 87 3 0 34 0 35 -78 0 c-47 0 -83 5 -90 12
-16 16 -15 73 1 86 7 6 53 12 103 14 l89 3 3 33 3 32 -151 0 -150 0 2 -222z"/>
<path d="M4332 4418 l3 -223 40 0 40 0 5 90 5 90 31 3 c46 4 77 -30 104 -115
l23 -73 38 0 c21 0 40 4 43 9 8 12 -41 149 -66 184 l-19 27 35 34 c31 28 36
40 36 77 0 93 -45 119 -205 119 l-115 0 2 -222z m209 142 c14 -8 19 -21 19
-50 0 -48 -21 -62 -88 -58 l-47 3 -3 44 c-2 24 -1 50 2 57 6 17 88 19 117 4z"/>
<path d="M5144 4627 c-2 -7 -3 -107 -2 -222 l3 -210 150 0 150 0 0 30 0 30
-95 5 c-52 3 -101 9 -107 13 -20 12 -17 103 3 111 9 3 52 6 95 6 l80 0 -3 33
-3 32 -80 3 c-43 2 -85 8 -92 14 -16 13 -17 70 -1 86 8 8 46 12 105 12 l93 0
0 35 0 35 -145 0 c-109 0 -147 -3 -151 -13z"/>
<path d="M3115 2486 c-5 -2 -22 -7 -37 -10 -37 -8 -85 -51 -105 -94 -14 -28
-18 -62 -18 -137 0 -92 2 -103 27 -139 38 -56 77 -76 146 -76 41 0 64 6 82 20
32 25 36 25 43 -1 5 -17 12 -20 44 -17 l38 3 3 109 c2 73 -1 113 -9 122 -9 11
-33 14 -98 12 l-86 -3 -3 -32 c-3 -33 -3 -33 40 -33 62 0 73 -10 59 -52 -18
-55 -81 -74 -142 -42 -80 41 -79 240 1 282 36 19 115 10 143 -17 29 -26 38
-26 65 0 20 18 21 22 8 41 -24 35 -75 58 -134 63 -31 3 -61 3 -67 1z"/>
<path d="M8465 2485 c-5 -2 -22 -6 -37 -9 -38 -9 -96 -61 -115 -105 -10 -23
-16 -66 -17 -116 -1 -66 3 -89 24 -130 35 -69 76 -95 155 -95 52 0 65 4 85 25
25 27 40 25 40 -6 0 -16 7 -19 40 -19 l40 0 0 125 0 125 -95 0 -95 0 0 -34 c0
-34 1 -35 48 -38 45 -3 47 -5 50 -34 7 -68 -96 -100 -157 -49 -41 35 -59 112
-42 183 16 65 47 94 109 100 41 4 52 0 80 -23 30 -25 35 -26 62 -15 39 16 38
41 0 74 -43 36 -130 56 -175 41z"/>
<path d="M2282 2258 l3 -223 99 -3 c203 -6 277 56 277 231 0 70 -4 86 -28 125
-44 71 -84 86 -231 90 l-122 4 2 -224z m243 126 c33 -21 45 -57 45 -132 0 -59
-3 -72 -27 -100 -22 -26 -40 -34 -86 -43 -86 -15 -87 -14 -87 151 0 75 3 140
8 144 11 12 122 -3 147 -20z"/>
<path d="M2765 2458 c-3 -13 -4 -113 -3 -223 l3 -200 43 -3 42 -3 0 225 0 226
-40 0 c-33 0 -41 -4 -45 -22z"/>
<path d="M3445 2458 c-3 -13 -4 -113 -3 -223 l3 -200 45 0 45 0 3 190 c2 105
0 205 -3 223 -5 30 -9 32 -45 32 -33 0 -41 -4 -45 -22z"/>
<path d="M3607 2459 c-10 -39 2 -49 57 -49 29 0 57 -5 64 -12 8 -8 12 -65 12
-190 l0 -178 40 0 40 0 0 174 c0 96 3 181 6 190 5 12 21 16 65 16 l59 0 0 35
0 35 -169 0 c-163 0 -169 -1 -174 -21z"/>
<path d="M4125 2470 c-11 -18 -145 -412 -145 -427 0 -8 13 -13 38 -13 32 0 41
5 50 25 7 14 12 32 12 40 0 31 30 45 99 45 78 0 93 -9 111 -67 12 -41 15 -43
51 -43 21 0 41 5 44 10 5 9 -21 100 -52 180 -3 8 -25 69 -48 135 l-41 120 -56
3 c-34 2 -59 -2 -63 -8z m93 -177 c10 -32 17 -64 14 -71 -2 -7 -23 -12 -53
-12 -62 0 -63 5 -9 145 14 36 20 28 48 -62z"/>
<path d="M4470 2255 l0 -226 143 3 142 3 0 30 0 30 -95 5 -95 5 -6 185 c-3
102 -6 186 -7 188 -1 1 -20 2 -42 2 l-40 0 0 -225z"/>
<path d="M4982 2258 l3 -223 35 0 35 0 5 145 5 145 17 -40 c19 -46 65 -175 79
-222 9 -29 14 -33 45 -33 40 0 41 2 101 172 21 58 41 104 45 102 5 -3 8 -66 8
-140 l0 -134 40 0 40 0 0 225 0 226 -57 -3 -56 -3 -52 -153 c-29 -84 -55 -155
-58 -158 -8 -9 -20 19 -73 174 l-48 142 -58 0 -58 0 2 -222z"/>
<path d="M5665 2468 c-16 -50 -41 -124 -89 -263 -30 -88 -52 -163 -50 -167 3
-4 23 -8 44 -8 35 0 40 3 46 28 4 15 13 39 21 55 13 26 17 27 87 27 82 0 94
-7 111 -69 9 -31 15 -36 44 -39 63 -6 63 -4 9 150 -27 79 -61 178 -75 221
l-26 77 -59 0 c-38 0 -60 -4 -63 -12z m94 -165 c30 -94 30 -93 -34 -93 -30 0
-55 4 -55 9 0 11 38 129 45 142 13 20 24 6 44 -58z"/>
<path d="M6005 2458 c-3 -13 -4 -113 -3 -223 l3 -200 42 -3 42 -3 3 93 3 93
35 3 c51 4 68 -14 98 -103 26 -77 29 -80 61 -83 59 -6 62 0 36 70 -31 85 -42
109 -61 136 -9 12 -12 22 -6 22 21 0 61 50 67 84 9 43 -15 90 -58 116 -27 17
-51 20 -144 20 -108 0 -113 -1 -118 -22z m213 -64 c27 -19 29 -64 3 -88 -14
-13 -33 -16 -72 -14 l-54 3 -3 44 c-2 24 -1 50 2 57 7 20 95 18 124 -2z"/>
<path d="M6434 2467 c-2 -7 -3 -107 -2 -222 l3 -210 43 -3 42 -3 0 90 c0 49 4
92 9 95 5 3 21 -11 37 -32 15 -20 30 -39 34 -42 3 -3 25 -29 49 -57 40 -49 46
-53 87 -53 24 0 44 4 44 10 0 5 -38 58 -85 117 -47 60 -85 110 -85 113 0 3 34
46 75 97 41 50 75 96 75 102 0 6 -18 11 -40 11 -37 0 -43 -5 -110 -85 -39 -47
-75 -85 -80 -85 -6 0 -10 38 -10 85 l0 85 -40 0 c-24 0 -43 -5 -46 -13z"/>
<path d="M6850 2255 l0 -225 150 0 150 0 0 35 0 35 -94 0 c-107 0 -126 10
-126 65 0 63 3 65 102 65 l89 0 -3 33 -3 32 -80 3 c-43 2 -85 8 -92 14 -14 11
-17 66 -5 85 5 8 43 13 107 15 l100 3 3 33 3 32 -150 0 -151 0 0 -225z"/>
<path d="M7192 2448 c3 -31 6 -33 43 -36 92 -6 84 11 87 -195 l3 -182 40 0 40
0 5 185 5 185 60 5 c59 5 60 5 63 38 l3 32 -176 0 -176 0 3 -32z"/>
<path d="M7610 2254 l0 -225 43 3 42 3 3 200 c1 110 0 210 -3 223 -4 18 -12
22 -45 22 l-40 0 0 -226z"/>
<path d="M7820 2254 l0 -225 43 3 42 3 5 150 5 150 35 -55 c20 -30 63 -99 95
-153 l60 -98 45 3 45 3 3 200 c1 110 0 210 -3 223 -4 18 -12 22 -45 22 l-40 0
0 -135 c0 -74 -4 -135 -9 -135 -9 0 -151 215 -151 229 0 21 -40 41 -83 41
l-47 0 0 -226z"/>
</g>
</svg>
