<?xml version="1.0" standalone="no"?>
<!DOCTYPE svg PUBLIC "-//W3C//DTD SVG 20010904//EN"
 "http://www.w3.org/TR/2001/REC-SVG-20010904/DTD/svg10.dtd">
<svg version="1.0" xmlns="http://www.w3.org/2000/svg"
 width="1080.000000pt" height="1080.000000pt" viewBox="0 0 1080.000000 1080.000000"
 preserveAspectRatio="xMidYMid meet">

<g transform="translate(0.000000,1080.000000) scale(0.100000,-0.100000)"
fill="#000000" stroke="none">
<path d="M2419 6416 c-29 -20 -42 -40 -67 -108 -17 -46 -62 -164 -101 -263
-181 -465 -234 -602 -241 -625 -4 -15 -1 -45 9 -75 l16 -50 74 -3 c41 -2 78 1
83 6 7 7 30 70 183 510 52 149 61 170 69 161 2 -2 47 -125 99 -274 52 -148
106 -299 119 -335 l23 -65 109 -3 c60 -1 112 1 116 5 4 4 -12 55 -35 113 -60
152 -229 584 -368 947 -18 46 -37 83 -42 83 -6 0 -26 -11 -46 -24z"/>
<path d="M4825 6140 c-9 -15 -125 -332 -125 -342 0 -4 11 -8 23 -8 19 0 26 8
36 40 l12 40 79 0 79 0 12 -40 c10 -32 17 -40 36 -40 12 0 23 4 23 9 0 11
-108 308 -121 332 -10 20 -44 26 -54 9z m56 -137 c12 -38 24 -74 27 -80 3 -10
-12 -13 -58 -13 -46 0 -61 3 -58 13 3 6 15 42 27 80 13 37 26 67 31 67 5 0 18
-30 31 -67z"/>
<path d="M5060 5970 l0 -180 25 0 c24 0 25 2 25 76 l0 75 27 -3 c21 -2 36 -18
71 -75 35 -59 48 -73 68 -73 13 0 24 3 24 6 0 4 -15 32 -34 63 -45 73 -46 79
-16 94 48 24 65 101 34 146 -24 34 -75 51 -154 51 l-70 0 0 -180z m168 124
c22 -15 30 -66 14 -90 -13 -20 -50 -34 -91 -34 l-41 0 0 70 0 70 48 0 c27 0
57 -7 70 -16z"/>
<path d="M5377 6143 c-4 -3 -7 -84 -7 -180 l0 -173 25 0 c23 0 24 2 27 80 l3
81 70 -80 c55 -63 76 -80 98 -81 36 0 34 9 -9 51 -20 18 -54 55 -76 82 l-40
47 76 84 c42 46 76 87 76 90 0 3 -10 6 -22 6 -16 0 -47 -25 -100 -82 l-77 -83
-1 83 c0 73 -2 82 -18 82 -10 0 -22 -3 -25 -7z"/>
<path d="M5680 5970 l0 -180 95 0 c88 0 95 1 95 20 0 18 -7 20 -70 20 l-70 0
0 60 0 60 65 0 c58 0 65 2 65 20 0 18 -7 20 -65 20 l-65 0 0 60 0 60 70 0 c63
0 70 2 70 20 0 19 -7 20 -95 20 l-95 0 0 -180z"/>
<path d="M5920 6130 c0 -17 7 -20 50 -20 l50 0 0 -160 0 -160 25 0 25 0 0 160
0 160 45 0 c38 0 45 3 45 20 0 19 -7 20 -120 20 -113 0 -120 -1 -120 -20z"/>
<path d="M6220 5970 l0 -180 25 0 25 0 0 180 0 180 -25 0 -25 0 0 -180z"/>
<path d="M6350 5971 c0 -173 1 -181 20 -181 18 0 20 8 22 142 l3 143 93 -143
c78 -119 97 -142 117 -142 l25 0 0 180 0 180 -25 0 -25 0 0 -142 0 -143 -93
140 c-67 102 -98 141 -114 143 l-23 3 0 -180z"/>
<path d="M6795 6136 c-43 -18 -93 -79 -101 -121 -16 -86 19 -166 89 -206 49
-27 143 -24 185 8 43 32 72 82 72 124 l0 39 -96 0 c-86 0 -95 -2 -92 -17 3
-15 16 -19 71 -21 37 -2 67 -7 67 -13 0 -5 -7 -23 -15 -39 -35 -68 -140 -79
-198 -22 -38 39 -49 120 -23 171 43 82 162 93 213 21 14 -20 63 -28 63 -11 0
19 -55 74 -87 87 -41 17 -109 17 -148 0z"/>
<path d="M4280 5966 c0 -169 1 -176 20 -176 19 0 20 7 20 127 0 72 4 123 9
118 4 -6 32 -63 61 -127 36 -81 58 -118 69 -118 11 0 34 40 73 128 l58 127 0
-127 0 -128 25 0 25 0 0 176 0 175 -27 -3 c-25 -3 -33 -16 -86 -133 -32 -71
-62 -133 -66 -138 -4 -4 -34 55 -68 130 -54 123 -63 138 -87 141 l-26 3 0
-175z"/>
<path d="M3200 5896 l0 -86 45 0 c126 0 127 150 3 166 l-48 7 0 -87z m83 55
c33 -13 45 -63 23 -96 -12 -19 -25 -25 -51 -25 l-35 0 0 65 c0 71 7 77 63 56z"/>
<path d="M3390 5895 c0 -50 4 -85 10 -85 6 0 10 35 10 85 0 50 -4 85 -10 85
-6 0 -10 -35 -10 -85z"/>
<path d="M3505 5968 c-75 -44 -49 -158 35 -158 36 0 80 38 80 70 0 17 -6 20
-45 20 -25 0 -45 -4 -45 -10 0 -5 16 -10 36 -10 36 0 36 -1 22 -22 -22 -34
-77 -32 -97 3 -19 34 -7 76 25 91 21 10 32 9 56 -5 34 -20 50 -15 27 8 -20 20
-70 27 -94 13z"/>
<path d="M3670 5895 c0 -50 4 -85 10 -85 6 0 10 35 10 85 0 50 -4 85 -10 85
-6 0 -10 -35 -10 -85z"/>
<path d="M3740 5970 c0 -5 9 -10 20 -10 18 0 20 -7 20 -75 0 -43 4 -75 10 -75
6 0 10 32 10 75 0 74 0 75 26 75 14 0 23 4 19 10 -3 6 -28 10 -56 10 -27 0
-49 -4 -49 -10z"/>
<path d="M4078 5974 c-5 -4 -8 -43 -8 -86 l0 -78 40 0 c22 0 40 5 40 10 0 6
-13 10 -30 10 l-29 0 -3 76 c-2 42 -6 72 -10 68z"/>
<path d="M2870 5960 c0 -5 21 -63 46 -127 59 -151 81 -208 144 -373 28 -74 69
-180 90 -235 51 -131 112 -292 147 -384 16 -41 33 -76 40 -78 6 -2 31 48 58
119 27 68 67 173 91 233 23 61 79 205 124 320 44 116 89 230 100 255 l19 45
-111 3 c-61 1 -114 -1 -118 -5 -4 -4 -40 -102 -80 -216 -40 -114 -77 -206 -82
-205 -5 2 -26 55 -48 118 -22 63 -75 211 -117 328 l-77 212 -113 0 c-67 0
-113 -4 -113 -10z"/>
<path d="M3924 5923 c-9 -27 -23 -63 -30 -80 -11 -27 -11 -33 0 -33 8 0 16 9
19 20 4 15 14 20 42 20 28 0 38 -5 42 -20 3 -11 11 -20 19 -20 11 0 11 6 0 33
-7 17 -21 53 -30 80 -10 26 -24 47 -31 47 -7 0 -21 -21 -31 -47z m56 -50 c0
-7 -11 -13 -25 -13 -28 0 -30 4 -13 51 l12 34 12 -30 c7 -17 13 -36 14 -42z"/>
<path d="M4829 5413 c-22 -56 -119 -324 -119 -328 0 -3 11 -5 25 -5 20 0 26 7
36 40 l12 41 80 -3 80 -3 12 -35 c9 -27 18 -36 38 -38 l26 -3 -30 83 c-105
290 -100 278 -125 278 -17 0 -28 -8 -35 -27z m87 -188 c6 -25 6 -25 -56 -25
-55 0 -61 2 -55 18 4 9 16 42 26 72 11 30 22 62 25 70 6 14 44 -72 60 -135z"/>
<path d="M5152 5419 c-120 -60 -124 -248 -7 -317 53 -31 145 -28 193 7 38 27
72 88 72 131 l0 30 -95 0 c-88 0 -95 -1 -95 -20 0 -18 7 -20 70 -20 75 0 79
-3 55 -50 -41 -79 -172 -78 -219 1 -23 38 -23 122 -1 155 46 71 140 82 199 25
17 -17 42 -31 54 -31 27 0 27 4 1 41 -47 66 -147 87 -227 48z"/>
<path d="M5470 5260 l0 -180 95 0 c88 0 95 1 95 20 0 18 -7 20 -70 20 l-70 0
0 60 0 60 65 0 c58 0 65 2 65 20 0 18 -7 20 -65 20 l-65 0 0 60 0 60 70 0 c63
0 70 2 70 20 0 19 -7 20 -95 20 l-95 0 0 -180z"/>
<path d="M5740 5261 c0 -173 1 -181 20 -181 18 0 20 8 22 142 l3 143 93 -143
c78 -119 97 -142 117 -142 l25 0 0 180 0 180 -25 0 -25 0 0 -142 0 -143 -93
140 c-67 102 -98 141 -114 143 l-23 3 0 -180z"/>
<path d="M6185 5426 c-93 -42 -131 -155 -84 -253 28 -58 87 -93 158 -93 61 0
98 17 136 62 l28 33 -28 3 c-18 2 -31 -2 -37 -12 -14 -25 -63 -46 -108 -46
-32 0 -48 7 -78 34 -36 34 -37 36 -37 105 0 66 2 73 31 102 54 53 151 50 189
-7 15 -23 65 -35 65 -15 0 19 -55 74 -87 87 -41 18 -109 17 -148 0z"/>
<path d="M6470 5431 c0 -6 25 -57 55 -114 51 -96 55 -109 55 -170 0 -65 1 -67
25 -67 24 0 25 2 25 73 0 68 4 78 55 176 30 57 55 106 55 108 0 1 -11 3 -25 3
-22 0 -31 -12 -68 -92 l-44 -93 -46 93 c-36 70 -52 92 -67 92 -11 0 -20 -4
-20 -9z"/>
<path d="M2030 5258 c0 -2 -13 -41 -30 -86 -22 -62 -26 -82 -16 -82 7 0 16 9
19 20 4 15 14 20 40 20 27 0 37 -5 42 -20 7 -22 25 -28 24 -7 -1 26 -55 151
-67 155 -6 2 -12 2 -12 0z m40 -109 c0 -5 -11 -9 -25 -9 -28 0 -31 13 -14 57
l11 28 14 -34 c8 -18 14 -37 14 -42z"/>
<path d="M2160 5176 l0 -86 45 0 c128 0 128 153 1 167 l-46 6 0 -87z m100 44
c42 -42 13 -110 -46 -110 l-34 0 0 65 0 65 30 0 c17 0 39 -9 50 -20z"/>
<path d="M2341 5248 c1 -32 56 -153 69 -153 9 0 26 29 42 70 29 75 33 95 19
95 -5 0 -19 -29 -31 -65 -12 -36 -25 -65 -29 -65 -4 0 -18 29 -30 65 -21 58
-42 86 -40 53z"/>
<path d="M2530 5175 l0 -85 45 0 c25 0 45 5 45 10 0 6 -16 10 -35 10 -31 0
-35 3 -35 25 0 21 5 25 30 25 17 0 30 5 30 10 0 6 -13 10 -30 10 -27 0 -30 3
-30 30 0 28 3 30 36 30 21 0 33 4 29 10 -3 6 -24 10 -46 10 l-39 0 0 -85z"/>
<path d="M2670 5176 c0 -51 4 -86 10 -86 6 0 10 16 10 35 0 23 5 35 13 35 8 0
22 -16 33 -35 10 -19 25 -35 32 -35 10 0 8 9 -7 33 -20 33 -20 33 -1 50 42 36
18 75 -50 84 l-40 6 0 -87z m79 50 c18 -22 2 -46 -30 -46 -26 0 -29 4 -29 30
0 25 4 30 24 30 13 0 29 -6 35 -14z"/>
<path d="M2846 5244 c-33 -32 -18 -63 39 -81 20 -6 30 -16 30 -29 0 -23 -39
-31 -61 -13 -8 6 -18 9 -22 5 -11 -12 29 -36 58 -36 32 0 50 17 50 47 0 19
-10 28 -46 43 -34 15 -44 24 -40 36 3 9 6 18 6 20 0 9 39 4 45 -6 3 -5 13 -10
22 -10 14 0 14 3 -2 20 -22 24 -58 26 -79 4z"/>
<path d="M2990 5175 l0 -85 45 0 c25 0 45 5 45 10 0 6 -16 10 -35 10 -31 0
-35 3 -35 25 0 21 5 25 30 25 17 0 30 5 30 10 0 6 -13 10 -30 10 -27 0 -30 3
-30 30 0 28 3 30 35 30 19 0 35 5 35 10 0 6 -20 10 -45 10 l-45 0 0 -85z"/>
</g>
</svg>
