<?xml version="1.0" standalone="no"?>
<!DOCTYPE svg PUBLIC "-//W3C//DTD SVG 20010904//EN"
 "http://www.w3.org/TR/2001/REC-SVG-20010904/DTD/svg10.dtd">
<svg version="1.0" xmlns="http://www.w3.org/2000/svg"
 width="1080.000000pt" height="1080.000000pt" viewBox="0 0 1080.000000 1080.000000"
 preserveAspectRatio="xMidYMid meet">

<g transform="translate(0.000000,1080.000000) scale(0.100000,-0.100000)"
fill="#000000" stroke="none">
<path d="M2394 9389 c-167 -101 -262 -166 -278 -192 -8 -12 -26 -53 -39 -92
-13 -38 -36 -95 -50 -125 -14 -30 -35 -83 -46 -117 -20 -61 -31 -89 -57 -150
-8 -17 -14 -36 -14 -42 0 -10 -17 -53 -46 -116 -8 -16 -25 -59 -38 -95 -28
-77 -92 -242 -110 -285 -7 -16 -21 -47 -30 -68 -9 -21 -16 -45 -16 -53 0 -15
-14 -53 -46 -119 -7 -16 -25 -60 -39 -97 -13 -37 -33 -87 -44 -110 -11 -24
-29 -72 -41 -108 -20 -64 -43 -120 -59 -150 -5 -9 -12 -31 -16 -50 -4 -19 -25
-72 -46 -118 -22 -45 -39 -87 -39 -93 0 -5 -22 -65 -50 -132 -27 -67 -50 -130
-50 -139 0 -9 -4 -19 -10 -23 -5 -3 -14 -20 -19 -38 -16 -55 -67 -191 -79
-212 -13 -23 -90 -222 -121 -313 -12 -34 -25 -70 -30 -80 -19 -38 -41 -93 -41
-104 0 -6 -18 -52 -39 -102 -33 -76 -60 -143 -131 -331 -4 -11 -17 -47 -30
-80 -12 -33 -26 -69 -31 -80 -8 -18 -42 -105 -90 -230 -11 -27 -32 -81 -48
-120 -15 -38 -36 -95 -45 -125 -10 -30 -28 -77 -41 -105 -13 -27 -32 -77 -44
-111 -11 -33 -34 -90 -51 -126 -16 -37 -30 -71 -30 -76 0 -5 -14 -45 -31 -88
-88 -227 -86 -211 -54 -334 30 -122 96 -339 119 -394 l15 -37 370 3 c351 3
371 4 396 23 29 22 51 69 84 185 39 133 93 289 158 458 23 62 43 119 43 126 0
7 13 47 29 87 15 41 36 101 46 134 28 93 48 149 57 161 4 6 26 63 47 125 22
63 44 128 50 144 6 17 33 95 60 175 75 221 129 377 161 460 15 41 36 100 45
130 9 30 23 69 30 85 7 17 23 64 34 105 12 41 26 84 31 95 21 45 43 103 61
160 11 33 26 74 33 90 15 32 28 72 75 225 57 190 72 234 98 287 45 91 70 95
98 16 10 -26 23 -61 30 -78 7 -16 23 -58 34 -92 20 -61 31 -89 57 -150 8 -17
14 -37 14 -45 0 -7 12 -44 26 -83 48 -135 64 -184 64 -199 0 -8 13 -43 28 -78
16 -34 37 -88 47 -118 30 -93 46 -136 89 -233 9 -21 16 -46 16 -56 0 -10 16
-63 36 -117 20 -55 48 -130 61 -169 14 -38 31 -83 38 -100 18 -44 72 -196 80
-225 3 -14 10 -34 15 -45 5 -11 13 -36 19 -55 5 -19 21 -66 35 -104 14 -38 26
-75 26 -82 0 -7 13 -41 29 -76 16 -35 37 -88 46 -118 16 -51 36 -108 56 -155
21 -50 49 -141 49 -160 0 -11 6 -29 14 -40 7 -11 26 -58 41 -105 15 -47 42
-121 60 -165 18 -44 41 -107 50 -140 35 -115 78 -220 102 -245 l23 -25 438 -8
c569 -10 615 -9 644 20 24 24 22 36 -17 128 -38 89 -114 275 -125 305 -7 19
-19 49 -26 65 -7 17 -22 59 -34 95 -11 36 -30 85 -41 108 -11 24 -29 69 -41
100 -11 32 -32 82 -45 112 -14 30 -36 88 -50 127 -13 40 -31 85 -38 100 -8 16
-15 35 -15 43 0 9 -4 20 -9 25 -5 6 -14 26 -19 45 -6 19 -40 107 -77 195 -37
88 -71 174 -75 190 -5 17 -18 55 -30 85 -12 30 -26 69 -32 85 -6 17 -15 34
-19 40 -5 5 -9 17 -9 27 0 10 -12 42 -26 70 -23 46 -76 181 -91 233 -4 11 -12
29 -20 40 -7 11 -13 26 -13 35 0 8 -7 28 -15 44 -8 15 -15 36 -15 45 0 9 -6
25 -14 36 -7 11 -23 49 -35 85 -12 36 -26 74 -31 85 -29 64 -50 116 -65 163
-10 29 -21 55 -26 58 -5 3 -9 12 -9 21 0 8 -6 29 -14 46 -7 18 -24 61 -37 97
-13 36 -29 76 -36 90 -7 14 -13 30 -13 36 0 6 -18 53 -41 105 -22 52 -47 115
-55 140 -8 26 -29 80 -47 120 -19 41 -37 89 -40 107 -4 18 -18 58 -32 90 -47
102 -55 123 -55 132 0 6 -14 40 -31 77 -52 117 -59 133 -59 148 0 8 -6 29 -14
47 -8 18 -21 51 -29 73 -25 66 -57 149 -67 170 -5 11 -30 74 -55 140 -25 66
-53 138 -61 160 -9 22 -22 53 -30 68 -8 16 -14 34 -14 40 0 7 -6 24 -14 39 -8
15 -17 41 -21 59 -4 19 -11 40 -16 49 -19 34 -69 152 -69 161 0 9 -11 35 -55
134 -7 17 -21 55 -30 85 -9 30 -23 69 -30 85 -7 17 -18 41 -24 55 -6 14 -20
54 -31 90 -12 36 -27 76 -34 90 -7 14 -16 37 -20 53 -3 15 -12 27 -20 27 -7 0
-67 -32 -132 -71z"/>
<path d="M7672 7149 c-213 -36 -361 -252 -324 -474 29 -179 155 -305 335 -336
232 -39 444 130 455 364 l4 77 -216 0 -216 0 0 -45 0 -45 160 0 c182 0 173 5
139 -86 -45 -120 -146 -181 -283 -172 -117 8 -195 62 -245 168 -22 46 -26 69
-26 145 0 112 25 173 95 239 123 116 335 96 423 -40 21 -32 24 -34 85 -34 l62
0 -20 40 c-75 147 -251 229 -428 199z"/>
<path d="M6097 7143 c-4 -3 -7 -186 -7 -406 l0 -399 188 4 c159 3 196 7 244
25 175 65 256 198 246 405 -4 84 -9 106 -37 162 -57 116 -154 181 -303 206
-70 11 -321 14 -331 3z m365 -99 c81 -23 149 -85 178 -162 25 -66 30 -197 9
-259 -45 -138 -142 -193 -341 -193 l-108 0 0 315 0 315 102 0 c64 0 123 -6
160 -16z"/>
<path d="M7007 7143 c-4 -3 -7 -186 -7 -405 l0 -398 55 0 55 0 0 405 0 405
-48 0 c-27 0 -52 -3 -55 -7z"/>
<path d="M8377 7143 c-4 -3 -7 -186 -7 -405 l0 -398 55 0 55 0 0 405 0 405
-48 0 c-27 0 -52 -3 -55 -7z"/>
<path d="M8700 7105 l0 -45 110 0 110 0 0 -360 0 -360 55 0 55 0 0 360 0 360
110 0 110 0 0 45 0 45 -275 0 -275 0 0 -45z"/>
<path d="M10340 6746 l0 -406 195 0 195 0 0 45 0 45 -140 0 -140 0 -2 358 -3
357 -52 3 -53 3 0 -405z"/>
<path d="M4489 7128 c-33 -13 -25 -51 52 -243 4 -11 17 -40 27 -65 11 -25 27
-67 36 -95 9 -27 21 -59 26 -70 9 -21 42 -103 66 -167 34 -92 45 -119 88 -224
25 -62 46 -116 46 -122 0 -6 13 -39 28 -74 15 -34 36 -90 46 -123 10 -33 27
-78 37 -100 52 -118 69 -159 69 -171 0 -8 13 -42 29 -76 16 -35 37 -88 46
-118 10 -30 32 -91 50 -135 18 -44 40 -102 49 -130 9 -27 26 -70 38 -95 11
-25 32 -76 45 -115 13 -38 30 -83 37 -100 8 -16 28 -70 46 -120 18 -49 36 -99
40 -110 5 -11 24 -58 43 -105 19 -47 53 -132 76 -190 23 -58 52 -134 63 -170
12 -36 34 -93 50 -128 15 -34 28 -67 28 -73 0 -6 21 -61 46 -123 25 -61 52
-128 60 -148 8 -21 21 -57 30 -80 9 -24 22 -58 30 -76 8 -18 14 -37 14 -43 0
-6 6 -25 14 -42 34 -77 87 -211 126 -317 23 -63 48 -128 55 -145 7 -16 19 -50
27 -75 16 -48 62 -166 134 -341 24 -59 44 -114 44 -123 0 -10 13 -43 28 -74
16 -31 37 -82 47 -112 10 -30 31 -89 47 -130 17 -41 36 -91 43 -110 35 -96 72
-191 90 -235 7 -16 20 -47 29 -68 9 -21 16 -42 16 -48 0 -6 6 -25 14 -42 31
-70 76 -190 76 -204 0 -8 10 -35 21 -61 12 -26 35 -75 50 -109 21 -46 34 -64
53 -69 43 -10 82 21 96 78 7 29 25 76 112 293 38 93 59 150 94 255 20 58 42
116 49 130 25 47 127 305 136 344 5 21 20 62 33 90 13 28 31 74 41 101 10 28
31 82 47 120 17 39 43 104 58 145 15 41 38 100 50 130 13 30 26 64 30 75 13
37 51 140 66 178 8 20 20 54 28 75 26 69 80 197 87 207 4 6 17 42 29 80 12 39
37 106 55 150 18 44 38 98 45 120 7 22 25 67 40 100 15 33 38 89 50 125 12 35
32 87 45 115 12 27 32 79 43 115 20 64 96 257 132 335 10 22 30 76 45 120 15
44 46 123 67 175 22 52 43 107 48 122 7 24 58 155 149 383 15 39 37 97 49 130
31 90 96 252 128 320 39 85 63 156 57 172 -4 11 -104 13 -543 13 -499 0 -538
-1 -552 -17 -20 -23 -48 -82 -48 -101 0 -7 -6 -28 -14 -45 -8 -18 -24 -63 -37
-102 -12 -38 -35 -104 -50 -145 -15 -41 -35 -100 -45 -130 -9 -30 -30 -86 -45
-125 -15 -38 -36 -95 -45 -125 -18 -56 -35 -101 -59 -155 -7 -16 -28 -75 -45
-130 -17 -55 -38 -113 -45 -130 -8 -16 -23 -57 -34 -90 -11 -33 -30 -85 -41
-115 -38 -100 -50 -134 -90 -252 -21 -64 -43 -124 -49 -135 -6 -10 -19 -49
-30 -88 -53 -186 -97 -271 -130 -250 -4 2 -22 33 -39 67 -29 60 -38 86 -77
223 -10 33 -21 65 -25 70 -4 6 -17 44 -29 85 -12 41 -29 93 -38 115 -28 74
-41 110 -73 200 -18 50 -36 99 -41 110 -11 26 -34 92 -61 175 -22 68 -30 93
-73 202 -14 37 -28 82 -32 100 -3 18 -18 60 -34 93 -28 62 -59 148 -59 166 0
6 -9 31 -21 57 -35 81 -37 86 -53 139 -9 28 -16 59 -16 68 0 9 -7 29 -15 43
-25 48 -53 116 -70 177 -10 33 -21 65 -25 70 -4 6 -31 80 -59 165 -29 85 -65
189 -81 230 -93 245 -121 321 -135 375 -10 33 -23 74 -30 90 -16 37 -42 112
-49 145 -3 14 -14 35 -24 48 l-18 23 -533 2 c-293 1 -541 -1 -552 -5z"/>
<path d="M9701 7118 c-5 -13 -68 -187 -141 -388 -73 -201 -135 -371 -137 -377
-4 -10 10 -13 50 -13 l56 0 19 53 c11 28 25 69 33 90 l13 37 176 0 177 0 30
-87 30 -88 57 -3 c52 -3 57 -1 52 15 -4 10 -68 189 -144 398 l-138 380 -62 3
c-57 3 -63 1 -71 -20z m138 -301 c36 -100 66 -188 69 -194 3 -10 -29 -13 -138
-13 -113 0 -141 3 -138 13 8 36 134 377 138 377 3 0 34 -82 69 -183z"/>
<path d="M4432 3631 c-60 -21 -118 -70 -138 -118 -18 -41 -18 -134 0 -177 21
-52 79 -92 175 -121 47 -15 107 -33 133 -42 89 -28 132 -110 96 -188 -25 -55
-124 -87 -204 -66 -46 12 -92 55 -103 97 -7 27 -11 29 -64 32 -63 3 -64 2 -46
-61 14 -53 69 -110 132 -138 65 -29 200 -32 258 -7 98 43 155 134 147 232 -9
107 -58 149 -239 206 -142 45 -174 65 -188 117 -18 65 11 121 76 149 77 33
181 0 216 -68 18 -37 21 -38 73 -38 62 0 66 8 35 76 -51 112 -216 165 -359
115z"/>
<path d="M375 3628 c-3 -7 -66 -182 -141 -388 -75 -206 -139 -383 -141 -392
-5 -16 2 -18 50 -18 l55 0 32 90 32 90 177 0 177 0 13 -37 c8 -21 22 -62 33
-90 l19 -53 55 0 c30 0 54 2 54 4 0 4 -265 738 -281 779 -11 25 -15 27 -71 27
-38 0 -60 -4 -63 -12z m135 -320 c36 -100 66 -188 68 -195 3 -10 -28 -13 -137
-13 -78 0 -141 3 -141 8 0 15 133 382 139 382 3 0 35 -82 71 -182z"/>
<path d="M1010 3235 l0 -405 160 0 c87 0 183 5 212 11 127 27 221 97 274 205
27 55 29 67 29 184 0 116 -2 129 -28 185 -52 112 -156 190 -287 215 -29 6
-122 10 -206 10 l-154 0 0 -405z m425 280 c41 -21 68 -44 91 -78 44 -64 57
-114 57 -215 -1 -73 -5 -92 -33 -148 -56 -115 -138 -154 -322 -154 l-108 0 0
316 0 316 128 -3 c120 -4 133 -6 187 -34z"/>
<path d="M2015 3238 l152 -403 63 0 63 0 143 380 c80 209 147 390 150 403 6
21 3 22 -48 22 l-54 0 -123 -340 c-68 -187 -127 -340 -131 -340 -3 0 -62 153
-130 340 l-124 340 -57 0 -56 0 152 -402z"/>
<path d="M2800 3235 l0 -405 220 0 220 0 0 45 0 45 -165 0 -165 0 0 140 0 140
150 0 150 0 0 40 0 40 -150 0 -150 0 0 135 0 135 165 0 165 0 0 45 0 45 -220
0 -220 0 0 -405z"/>
<path d="M3490 3235 l0 -405 55 0 55 0 0 165 0 165 64 0 64 0 95 -162 95 -163
61 -3 c34 -2 61 0 61 4 0 3 -43 77 -95 164 -52 87 -95 160 -95 163 0 3 16 11
36 17 88 30 147 117 148 220 0 80 -28 138 -91 186 -57 43 -116 54 -298 54
l-155 0 0 -405z m359 297 c55 -27 76 -64 76 -131 -1 -66 -19 -102 -68 -131
-27 -17 -51 -20 -144 -20 l-113 0 0 150 0 150 108 0 c82 0 115 -4 141 -18z"/>
<path d="M5070 3235 l0 -405 221 0 220 0 -3 43 -3 42 -162 3 -163 2 0 140 0
140 145 0 145 0 0 40 0 40 -145 0 -145 0 0 135 0 135 163 2 162 3 3 43 3 42
-220 0 -221 0 0 -405z"/>
</g>
</svg>
