<svg xmlns="http://www.w3.org/2000/svg" viewBox="0 0 1040.69 200"><defs><style>.a{fill:#14bef0;}.b{fill:#fff;}</style></defs><title>Hostomy White Logo</title><circle class="a" cx="26.32" cy="173.68" r="26.32"/><circle class="a" cx="26.32" cy="100" r="26.32"/><circle class="a" cx="26.32" cy="26.32" r="26.32"/><circle class="a" cx="100" cy="173.68" r="26.32"/><circle class="a" cx="100" cy="100" r="26.32"/><circle class="a" cx="100" cy="26.32" r="26.32"/><circle class="a" cx="173.68" cy="173.68" r="26.32"/><circle class="a" cx="173.68" cy="100" r="26.32"/><circle class="a" cx="173.68" cy="26.32" r="26.32"/><path class="b" d="M239.88,43.67h24v43h49v-43h24v112h-24v-47h-49v47h-24Z"/><path class="b" d="M354.53,100c0-32.53,25.13-57.5,58.27-57.5s58.27,25,58.27,57.5-25.13,57.5-58.27,57.5S354.53,132.53,354.53,100Zm92,0c0-19.73-14.49-35.3-33.76-35.3S379,80.27,379,100s14.49,35.3,33.76,35.3S446.56,119.73,446.56,100Z"/><path class="b" d="M488.88,124.73c11.91,7.63,26,11,34.65,11,8.85,0,15.42-3.51,15.42-11.75,0-10.23-10.38-11.14-24.58-15.72-15.26-5-29-12.52-29-31.75,0-20.61,15.57-33.43,38.77-33.43,10.84,0,24.12,2.75,33.74,7.94V75C546.13,67.64,532.54,64.28,524,64.28c-8.24,0-14.2,3.05-14.2,10.38,0,9.77,10.23,10.53,23.51,15,16.64,5.5,30.07,13.28,30.07,32.82,0,21.52-16.33,34.5-40.15,34.5-11,0-24.27-2.75-34.35-7.79Z"/><path class="b" d="M607.88,65.67h-36v-22h96v22h-36v91h-24Z"/><path class="b" d="M674.38,100c0-32.53,25.13-57.5,58.27-57.5s58.27,25,58.27,57.5-25.13,57.5-58.27,57.5S674.38,132.53,674.38,100Zm92,0c0-19.73-14.49-35.3-33.76-35.3S698.89,80.27,698.89,100s14.49,35.3,33.76,35.3S766.41,119.73,766.41,100Z"/><path class="b" d="M848.21,107c-5.55-7.86-11.09-16-16.33-23.89l-.31.15c.15,8,.31,18.5.31,27.75v44.71h-24v-112h23.76L865,91l33.39-47.34h23.45v112h-25V111c0-9.25.15-19.73.31-27.75l-.31-.15c-5.24,7.86-10.78,16-16.33,23.89l-16.17,23Z"/><path class="b" d="M974.88,105.08,932.77,43.67h28.47l13.33,19.85c4.24,6.21,8.94,13.48,13.18,20.15h.3c4.24-6.67,8.64-13.48,13.18-20.3l13.18-19.7h26.26l-41.81,61.26v50.74h-24Z"/></svg>