<?xml version="1.0" standalone="no"?>
<!DOCTYPE svg PUBLIC "-//W3C//DTD SVG 20010904//EN"
 "http://www.w3.org/TR/2001/REC-SVG-20010904/DTD/svg10.dtd">
<svg version="1.0" xmlns="http://www.w3.org/2000/svg"
 width="300.000000pt" height="48.000000pt" viewBox="0 0 300.000000 48.000000"
 preserveAspectRatio="xMidYMid meet">

<g transform="translate(0.000000,48.000000) scale(0.100000,-0.100000)"
fill="#000000" stroke="none">
<path d="M986 405 l-28 -46 -30 41 c-17 22 -38 40 -49 40 -18 0 -19 -9 -19
-160 l0 -160 25 0 25 0 0 122 0 122 41 -55 40 -54 -30 -3 c-55 -6 -33 -22 30
-22 66 0 66 -1 15 64 l-30 38 24 44 23 44 62 0 62 0 23 -43 23 -43 -27 -52
c-21 -42 -23 -52 -11 -52 8 0 27 24 42 54 l26 54 -30 53 -30 54 -74 3 -74 3
-29 -46z"/>
<path d="M1080 375 c0 -8 5 -15 10 -15 6 0 10 7 10 15 0 8 -4 15 -10 15 -5 0
-10 -7 -10 -15z"/>
<path d="M1080 241 l0 -90 -32 -3 c-52 -5 -47 -28 6 -28 38 0 46 3 46 18 0 10
5 23 11 29 8 8 8 13 0 17 -6 4 -11 37 -11 77 0 39 -4 69 -10 69 -6 0 -10 -36
-10 -89z"/>
<path d="M1220 200 l0 -81 63 3 c47 2 62 7 62 18 0 10 -13 16 -42 18 -52 4
-58 22 -8 22 28 0 35 4 35 20 0 16 -7 20 -35 20 -19 0 -35 5 -35 10 0 6 18 10
40 10 33 0 40 3 40 20 0 18 -7 20 -60 20 l-60 0 0 -80z"/>
<path d="M1375 270 c-9 -15 4 -30 26 -30 17 0 19 -7 19 -61 0 -57 1 -60 23
-57 19 3 22 10 25 61 3 49 6 57 22 57 13 0 20 7 20 20 0 18 -7 20 -64 20 -36
0 -68 -4 -71 -10z"/>
<path d="M1550 201 c0 -74 2 -81 20 -81 13 0 20 7 20 20 0 26 22 26 45 0 10
-11 27 -20 38 -20 18 0 18 1 4 24 -14 21 -14 26 -2 36 20 16 19 64 -1 81 -8 7
-40 14 -70 17 l-54 4 0 -81z m95 19 c0 -9 -11 -16 -27 -18 -23 -3 -28 1 -28
18 0 17 5 21 28 18 16 -2 27 -9 27 -18z"/>
<path d="M1734 266 c-3 -7 -4 -42 -2 -77 3 -58 5 -64 26 -67 21 -3 22 -1 22
77 0 75 -2 81 -20 81 -11 0 -23 -6 -26 -14z"/>
<path d="M1839 211 c21 -29 21 -29 1 -54 -11 -14 -20 -28 -20 -31 0 -13 38 -5
51 10 12 14 14 14 25 -1 7 -9 22 -15 34 -13 l22 3 -22 28 -23 29 22 29 22 29
-24 0 c-13 0 -29 -6 -36 -12 -11 -10 -14 -10 -18 0 -3 6 -16 12 -30 12 l-24 0
20 -29z"/>
<path d="M1125 210 c-3 -5 1 -10 10 -10 12 0 15 -6 10 -21 -5 -15 -3 -20 6
-17 8 3 15 17 17 31 3 21 -1 27 -17 27 -11 0 -23 -4 -26 -10z"/>
<path d="M1120 148 c0 -9 7 -19 16 -22 25 -10 27 -1 4 19 -17 15 -20 16 -20 3z"/>
<path d="M940 136 c0 -11 10 -16 31 -16 38 0 35 24 -4 28 -19 2 -27 -1 -27
-12z"/>
<path d="M1552 58 l3 -33 200 0 200 0 3 33 3 32 -206 0 -206 0 3 -32z m68 -3
c0 -8 -9 -15 -20 -15 -11 0 -20 7 -20 15 0 8 9 15 20 15 11 0 20 -7 20 -15z
m50 0 c0 -8 -4 -15 -10 -15 -5 0 -10 7 -10 15 0 8 5 15 10 15 6 0 10 -7 10
-15z m58 3 c-7 -19 -38 -22 -38 -4 0 10 9 16 21 16 12 0 19 -5 17 -12z m29
-10 c-3 -8 -6 -5 -6 6 -1 11 2 17 5 13 3 -3 4 -12 1 -19z m57 7 c3 -9 0 -15
-9 -15 -8 0 -15 7 -15 15 0 8 4 15 9 15 5 0 11 -7 15 -15z m43 0 c0 -8 -4 -15
-9 -15 -4 0 -8 7 -8 15 0 8 4 15 8 15 5 0 9 -7 9 -15z m63 0 c0 -8 -7 -15 -15
-15 -8 0 -15 7 -15 15 0 8 7 15 15 15 8 0 15 -7 15 -15z"/>
</g>
</svg>
