<?xml version="1.0" standalone="no"?>
<!DOCTYPE svg PUBLIC "-//W3C//DTD SVG 20010904//EN"
 "http://www.w3.org/TR/2001/REC-SVG-20010904/DTD/svg10.dtd">
<svg version="1.0" xmlns="http://www.w3.org/2000/svg"
 width="605.000000pt" height="225.000000pt" viewBox="0 0 605.000000 225.000000"
 preserveAspectRatio="xMidYMid meet">

<g transform="translate(0.000000,225.000000) scale(0.100000,-0.100000)"
fill="#000000" stroke="none">
<path d="M578 2030 c-27 -17 -48 -35 -48 -40 0 -6 -31 -91 -69 -188 -38 -97
-138 -352 -221 -567 l-152 -390 19 -65 18 -65 95 0 95 0 17 50 c9 28 42 122
73 210 31 88 85 242 120 343 60 175 70 200 79 191 2 -2 66 -179 142 -394 75
-214 142 -393 148 -397 14 -10 253 -10 259 0 3 4 -13 52 -34 107 -22 55 -75
192 -119 305 -43 113 -107 275 -140 360 -34 85 -81 207 -105 270 -24 63 -59
155 -78 205 -19 49 -39 90 -43 92 -5 1 -30 -11 -56 -27z"/>
<path d="M3680 1510 l0 -210 25 0 c25 0 25 1 25 85 l0 85 34 0 c33 0 37 -4 83
-85 44 -78 50 -84 80 -85 l32 0 -52 87 c-40 67 -48 88 -37 91 8 3 30 20 48 38
27 27 32 40 32 77 0 89 -60 127 -197 127 l-73 0 0 -210z m162 160 c41 -12 58
-34 58 -75 0 -57 -41 -85 -126 -85 l-44 0 0 78 c0 43 3 82 7 85 10 10 63 8
105 -3z"/>
<path d="M4040 1510 l0 -210 25 0 c25 0 25 0 25 98 l0 97 43 -45 c23 -25 64
-69 90 -98 41 -44 54 -53 78 -50 29 3 29 4 -61 102 -49 55 -90 102 -90 106 0
3 33 42 73 86 124 138 115 124 79 124 -26 0 -43 -14 -113 -92 -45 -51 -86 -94
-91 -96 -4 -2 -8 39 -8 92 0 96 0 96 -25 96 l-25 0 0 -210z"/>
<path d="M4400 1510 l0 -210 110 0 c103 0 110 1 110 20 0 17 -8 19 -82 22
l-83 3 -3 73 -3 72 76 0 c68 0 75 2 75 20 0 18 -7 20 -75 20 l-76 0 3 73 3 72
83 3 c74 3 82 5 82 22 0 19 -7 20 -110 20 l-110 0 0 -210z"/>
<path d="M4680 1700 c0 -16 8 -19 58 -22 l57 -3 3 -187 2 -188 25 0 25 0 2
188 3 187 53 3 c44 3 52 6 52 23 0 18 -8 19 -140 19 -132 0 -140 -1 -140 -20z"/>
<path d="M5030 1510 l0 -210 25 0 25 0 0 210 0 210 -25 0 -25 0 0 -210z"/>
<path d="M5180 1510 l0 -210 25 0 25 0 2 165 3 165 109 -165 c90 -137 112
-165 132 -165 l24 0 0 210 0 210 -25 0 -25 0 0 -167 0 -168 -112 168 c-91 137
-115 167 -135 167 l-23 0 0 -210z"/>
<path d="M5705 1706 c-77 -34 -119 -103 -120 -196 0 -79 28 -136 88 -177 54
-37 146 -44 203 -15 68 35 114 102 114 167 l0 35 -110 0 c-103 0 -110 -1 -110
-20 0 -18 7 -20 85 -20 47 0 85 -3 85 -7 0 -24 -45 -92 -72 -108 -41 -24 -112
-24 -156 -1 -88 46 -106 193 -33 267 60 59 165 58 215 -2 20 -24 32 -30 56
-27 l30 3 -24 36 c-47 69 -170 101 -251 65z"/>
<path d="M2750 1505 l0 -206 27 3 26 3 -2 148 c-1 81 1 147 6 147 4 0 37 -68
73 -150 54 -125 68 -150 84 -148 15 2 36 40 85 152 l66 149 3 -152 3 -151 27
0 27 0 0 205 0 206 -30 -3 c-27 -3 -33 -12 -100 -161 -40 -87 -75 -159 -80
-160 -5 -1 -41 70 -81 158 -69 154 -73 160 -103 163 l-31 3 0 -206z"/>
<path d="M3322 1511 c-40 -110 -72 -202 -72 -205 0 -3 10 -6 23 -6 18 0 28 11
44 50 l21 50 85 0 c93 0 97 -2 116 -62 10 -30 18 -38 37 -38 13 0 24 4 24 9 0
5 -31 96 -70 202 -38 105 -70 193 -70 195 0 2 -15 4 -33 4 l-34 0 -71 -199z
m147 26 c17 -48 31 -90 31 -93 0 -2 -34 -4 -75 -4 -41 0 -75 1 -75 3 0 2 14
41 30 88 17 46 33 90 36 98 8 23 19 3 53 -92z"/>
<path d="M1106 1502 c-3 -5 78 -224 180 -488 101 -263 204 -531 228 -594 25
-63 63 -163 86 -222 23 -60 47 -108 53 -108 10 0 86 186 233 575 18 49 182
470 215 553 l9 22 -134 0 -133 0 -90 -252 c-50 -139 -95 -254 -100 -255 -5 -2
-32 63 -60 144 -28 82 -76 218 -106 303 -31 85 -68 191 -84 235 -15 44 -32 83
-38 87 -14 10 -253 10 -259 0z"/>
<path d="M1500 1405 l0 -95 40 0 c57 0 96 23 110 64 24 73 -19 126 -101 126
l-49 0 0 -95z m113 57 c10 -9 17 -29 17 -54 0 -49 -28 -78 -75 -78 l-35 0 0
73 c0 41 3 77 7 81 10 10 65 -4 86 -22z"/>
<path d="M1710 1405 c0 -78 3 -95 15 -95 12 0 15 17 15 95 0 78 -3 95 -15 95
-12 0 -15 -17 -15 -95z"/>
<path d="M1837 1489 c-11 -6 -25 -27 -33 -46 -28 -66 18 -133 90 -133 34 0 86
46 86 76 0 23 -3 24 -52 22 -41 -1 -45 -2 -18 -5 50 -6 58 -18 30 -48 -29 -31
-72 -33 -100 -5 -26 26 -27 90 -2 113 24 22 80 22 104 0 10 -9 21 -13 26 -9 4
4 -4 16 -17 27 -26 21 -85 25 -114 8z"/>
<path d="M2040 1405 c0 -78 3 -95 15 -95 12 0 15 17 15 95 0 78 -3 95 -15 95
-12 0 -15 -17 -15 -95z"/>
<path d="M2143 1493 l27 -4 0 -90 c0 -72 3 -89 15 -89 12 0 15 17 15 89 l0 90
28 4 c15 2 -4 4 -43 4 -38 0 -58 -2 -42 -4z"/>
<path d="M2332 1413 c-18 -49 -32 -92 -32 -96 0 -16 18 -5 28 18 9 20 19 25
50 25 32 0 41 -5 50 -25 6 -14 16 -25 22 -25 16 0 -54 185 -72 188 -11 2 -24
-21 -46 -85z m58 32 c5 -14 13 -37 16 -50 6 -23 3 -25 -31 -25 -25 0 -35 4
-31 13 2 6 10 29 17 50 7 20 14 37 16 37 2 0 8 -11 13 -25z"/>
<path d="M2520 1405 l0 -95 45 0 c25 0 45 5 45 10 0 6 -16 10 -35 10 l-35 0 0
85 c0 50 -4 85 -10 85 -6 0 -10 -38 -10 -95z"/>
<path d="M3780 858 c-26 -14 -57 -41 -75 -66 -27 -40 -30 -51 -30 -122 0 -71
3 -82 30 -122 57 -81 169 -111 261 -69 62 28 114 109 114 177 0 24 -1 24 -110
24 -103 0 -110 -1 -110 -20 0 -18 7 -20 80 -20 90 0 97 -7 60 -67 -27 -46 -63
-65 -118 -66 -88 -1 -151 55 -160 141 -6 63 11 115 49 146 65 55 154 52 211
-5 28 -27 78 -40 78 -20 0 5 -12 24 -27 42 -58 68 -169 89 -253 47z"/>
<path d="M4160 670 l0 -210 110 0 c103 0 110 1 110 20 0 17 -8 19 -82 22 l-83
3 -3 73 -3 72 76 0 c68 0 75 2 75 20 0 18 -7 20 -75 20 l-75 0 0 75 0 75 85 0
c78 0 85 2 85 20 0 19 -7 20 -110 20 l-110 0 0 -210z"/>
<path d="M4460 670 l0 -210 25 0 25 0 1 148 c1 81 1 153 0 160 -5 35 27 -3
120 -148 92 -141 107 -159 132 -160 l27 0 0 210 0 210 -25 0 -25 0 -2 -167 -3
-168 -110 167 c-98 149 -113 168 -137 168 l-28 0 0 -210z"/>
<path d="M4985 863 c-78 -41 -115 -103 -115 -193 0 -66 21 -119 62 -157 81
-76 230 -68 301 16 34 40 34 51 1 51 -16 0 -37 -12 -57 -34 -45 -47 -108 -57
-170 -27 -134 65 -108 288 37 315 52 10 112 -9 138 -44 15 -21 30 -30 50 -30
15 0 28 4 28 9 0 19 -53 72 -91 91 -47 25 -141 26 -184 3z"/>
<path d="M5320 873 c0 -3 29 -62 65 -130 64 -122 65 -124 65 -203 0 -79 0 -80
25 -80 24 0 25 2 25 76 0 75 2 80 65 205 36 70 65 130 65 133 0 3 -11 6 -25 6
-22 0 -31 -13 -75 -105 -27 -58 -51 -105 -54 -105 -3 0 -28 47 -55 105 -44 93
-52 105 -75 105 -14 0 -26 -3 -26 -7z"/>
<path d="M3336 677 c-38 -105 -71 -198 -74 -205 -3 -10 3 -13 23 -10 22 2 31
11 44 48 l17 45 83 3 c47 2 88 -2 95 -7 7 -6 19 -29 26 -51 11 -34 17 -40 41
-40 27 0 28 1 18 28 -6 15 -37 99 -69 187 -32 88 -61 168 -65 178 -5 11 -18
17 -39 17 l-31 0 -69 -193z m144 19 c17 -48 29 -90 27 -92 -3 -3 -36 -4 -75
-2 l-70 3 36 98 c19 54 38 95 43 90 4 -4 22 -48 39 -97z"/>
<path d="M1103 652 c-29 -4 -45 -26 -41 -54 2 -16 17 -30 51 -46 39 -18 48
-27 45 -45 -4 -28 -43 -35 -69 -11 -25 23 -37 10 -14 -16 23 -26 69 -26 95 0
36 36 25 60 -43 89 -50 22 -60 43 -26 61 16 9 26 8 46 -5 28 -18 42 -13 24 9
-14 16 -38 23 -68 18z"/>
<path d="M115 638 c-2 -7 -18 -50 -34 -95 -21 -57 -27 -83 -18 -83 7 0 17 10
22 23 7 16 20 23 47 25 32 3 40 -1 50 -22 6 -14 17 -26 24 -26 12 0 0 43 -48
163 -11 28 -35 36 -43 15z m49 -95 c7 -21 4 -23 -28 -23 -20 0 -36 1 -36 3 0
2 8 26 17 53 l17 49 12 -30 c6 -17 15 -40 18 -52z"/>
<path d="M280 555 l0 -95 40 0 c80 0 130 52 115 119 -10 45 -48 71 -106 71
l-49 0 0 -95z m113 57 c12 -13 19 -33 19 -58 0 -47 -29 -74 -78 -74 l-34 0 0
81 0 82 37 -6 c20 -4 45 -15 56 -25z"/>
<path d="M509 573 c43 -114 42 -113 56 -113 13 0 17 9 59 123 17 46 21 67 13
67 -7 0 -25 -36 -41 -80 -15 -44 -29 -80 -31 -80 -2 0 -16 36 -31 80 -16 44
-34 80 -41 80 -9 0 -3 -25 16 -77z"/>
<path d="M710 555 l0 -95 50 0 c28 0 50 5 50 10 0 6 -18 10 -40 10 -39 0 -40
1 -40 35 0 33 2 35 35 35 19 0 35 5 35 10 0 6 -16 10 -35 10 -33 0 -35 2 -35
34 0 34 1 35 43 39 40 3 40 4 -10 5 l-53 2 0 -95z"/>
<path d="M870 555 c0 -57 4 -95 10 -95 6 0 10 18 10 40 0 33 3 40 19 40 13 0
28 -15 42 -40 13 -22 29 -40 36 -40 10 0 7 11 -9 40 l-23 40 23 15 c12 9 22
27 22 40 0 38 -26 55 -81 55 l-49 0 0 -95z m77 79 c51 -14 33 -74 -22 -74 -33
0 -35 2 -35 33 0 47 9 54 57 41z"/>
<path d="M1250 555 l0 -95 50 0 c28 0 50 5 50 10 0 6 -18 10 -40 10 -39 0 -40
1 -40 35 0 33 2 35 35 35 19 0 35 5 35 10 0 6 -16 10 -36 10 -34 0 -35 1 -32
33 3 29 7 33 43 38 39 6 39 6 -12 8 l-53 1 0 -95z"/>
</g>
</svg>
